<?xml version="1.0" encoding="utf-8"?>
<!-- Generator: Adobe Illustrator 24.0.1, SVG Export Plug-In . SVG Version: 6.00 Build 0)  -->
<svg version="1.1" id="图层_1" xmlns="http://www.w3.org/2000/svg" xmlns:xlink="http://www.w3.org/1999/xlink" x="0px" y="0px"
	 viewBox="0 0 700 700" style="enable-background:new 0 0 700 700;" xml:space="preserve">
<style type="text/css">
	.st0{fill:#FF8E00;}
</style>
<path class="st0" d="M117.8,355.7c-2.1,2.1-2.1,5.4,0,7.5c1,1,2.4,1.6,3.7,1.6s2.7-0.5,3.7-1.6l39.7-39.7l90.1,52l0,107.1
	c0,1.2,0.5,2.2,1.1,3.1l-40.8,40.8c-2.1,2.1-2.1,5.4,0,7.5c1,1,2.4,1.6,3.7,1.6s2.7-0.5,3.7-1.6l42.4-42.4l84.6,48.8v52.8
	c0,2.9,2.4,5.3,5.3,5.3c2.9,0,5.3-2.4,5.3-5.3v-52.8l86.4-49.8l43.4,43.4c1,1,2.4,1.6,3.7,1.6s2.7-0.5,3.7-1.6
	c2.1-2.1,2.1-5.4,0-7.5l-42.7-42.7c0.1-0.4,0.3-0.7,0.3-1.2l0-107.2l90.1-52l39.7,39.7c1,1,2.4,1.6,3.7,1.6s2.7-0.5,3.7-1.6
	c2.1-2.1,2.1-5.4,0-7.5l-42.4-42.4V210.4l42.4-42.4c2.1-2.1,2.1-5.4,0-7.5c-2.1-2.1-5.4-2.1-7.5,0l-41.1,41.1l-88.7-51.1V97.7
	c0-2.9-2.4-5.3-5.3-5.3c-2.9,0-5.3,2.4-5.3,5.3v52.8l-89.6,51.7l-89.6-51.7V97.7c0-2.9-2.4-5.3-5.3-5.3c-2.9,0-5.3,2.4-5.3,5.3v52.8
	l-88.7,51.2l-41.1-41.1c-2.1-2.1-5.4-2.1-7.5,0c-2.1,2.1-2.1,5.4,0,7.5l42.4,42.4l0,102.8L117.8,355.7z M355.3,531.3l-89.5-51.7
	l0-103.4l89.6-51.7l89.6,51.7v103.4L355.3,531.3z M539.7,314.7l-89.6,51.7l-89.5-51.7l0-103.4l89.6-51.7l89.6,51.7L539.7,314.7z
	 M350,314.7l-89.6,51.7l-89.5-51.7l0-103.4l89.6-51.7l89.6,51.7L350,314.7z"/>
</svg>
