<?xml version="1.0" encoding="utf-8"?>
<!-- Generator: Adobe Illustrator 24.0.1, SVG Export Plug-In . SVG Version: 6.00 Build 0)  -->
<svg version="1.1" id="图层_1" xmlns="http://www.w3.org/2000/svg" xmlns:xlink="http://www.w3.org/1999/xlink" x="0px" y="0px"
	 viewBox="0 0 700 700" style="enable-background:new 0 0 700 700;" xml:space="preserve">
<style type="text/css">
	.st0{fill:#FF8E00;}
</style>
<g>
	<path class="st0" d="M591.9,176.9c1.8-5.3,2.6-11.4,0-17.5c-0.9-2.6-2.6-4.4-5.3-6.1c-9.6-7.9-20.1-2.6-23.6-0.9
		c-6.1,3.5-12.3,6.1-18.4,9.6c-14,7-28.9,14.9-43.8,22.8c-5.3,3.5-10.5,9.6-13.1,15.8c-2.6,7.9-5.3,16.6-7.9,25.4
		c-2.6,7-4.4,14.9-7,21.9c-0.9,1.8-1.8,3.5-3.5,4.4C444,267,418.6,281,394.1,295L374,306.4c-10.5,6.1-32.4,18.4-42.9,24.5l-13.1,7
		c-7,4.4-14.9,8.8-22.8,14s-7.9,15.8-4.4,22.8l0.9,0.9c2.6,5.3,8.8,9.6,15.8,9.6c1.8,0,3.5,0,5.3-0.9c8.8-3.5,17.5-7,25.4-10.5
		l78.8-35.9c26.3-12.3,52.5-24.5,78.8-35.9c0.9-0.9,3.5-0.9,5.3,0c7,2.6,14.9,4.4,22.8,7s16.6,5.3,24.5,7.9c6.1,1.8,14,0.9,20.1-1.8
		c14.9-7,29.8-14.9,44.6-21.9l19.3-9.6c3.5-1.8,14-7,13.1-19.3c0-2.6-0.9-5.3-1.8-7.9c-3.5-6.1-8.8-8.8-14-10.5
		c-7-1.8-13.1-4.4-21-7c-9.6-3.5-19.3-6.1-29.8-9.6l-0.9-0.9c3.5-10.5,7-20.1,9.6-30.6C587.5,190.9,590.1,183.9,591.9,176.9z
		 M584,174.3c-2.6,7-4.4,13.1-6.1,21l-10.5,31.5c0,0.9-0.9,1.8-0.9,2.6v2.6l1.8,1.8v2.6l2.6,0.9c0,0,0.9,0.9,1.8,0.9
		c10.5,3.5,21,7,31.5,10.5c7,2.6,13.1,4.4,20.1,7c4.4,1.8,7.9,2.6,9.6,6.1c0.9,0.9,0.9,2.6,0.9,4.4c0,6.1-4.4,8.8-8.8,11.4
		l-19.3,7.9c-14,7-28.9,14.9-43.8,21.9c-3.5,1.8-9.6,2.6-14,0.9c-7.9-2.6-16.6-5.3-24.5-7.9c-7-2.6-14.9-5.3-22.8-7
		c-3.5-0.9-7.9-0.9-11.4,0.9c-26.3,12.3-53.4,24.5-78.8,35.9l-78.8,35.9c-7,3.5-14.9,7-23.6,10.5c-4.4,1.8-8.8-2.6-10.5-5.3
		c-1.8-3.5-1.8-9.6,1.8-12.3c7.9-5.3,15.8-9.6,21.9-13.1l7-4.4l2.6-1.8c8.8-5.3,35-19.3,45.5-26.3l20.1-11.4
		c24.5-14,50.8-28.9,75.3-42.9c2.6-1.8,6.1-5.3,7-8.8c2.6-7,5.3-14.9,7.9-22.8l7.9-23.6c1.8-4.4,5.3-8.8,8.8-10.5
		c14-7.9,28.9-15.8,43.8-22.8c6.1-3.5,12.3-6.1,19.3-9.6c4.4-2.6,9.6-4.4,14,0c0.9,0.9,2.6,1.8,2.6,3.5
		C585.7,166.4,584.9,169.9,584,174.3z"/>
	<path class="st0" d="M306.6,166.4c-109.4,0-197.8,88.4-197.8,197.8c0,108.5,88.4,197.8,197.8,197.8s197.8-88.4,197.8-197.8v-5.3
		c-0.9-6.1-6.1-10.5-12.3-9.6s-10.5,6.1-9.6,12.3v2.6c0,97.1-78.8,175.9-175.9,175.9s-175.9-78.8-175.9-175.9
		s78.8-175.9,175.9-175.9c40.3,0,77.9,13.1,109.4,38.5c4.4,3.5,11.4,2.6,15.8-1.8c3.5-4.4,2.6-11.4-1.8-15.8
		C394.1,181.3,351.2,166.4,306.6,166.4L306.6,166.4z"/>
	<path class="st0" d="M306.6,287.1c3.5,0,6.1,0,9.6,0.9h1.8c6.1,0,10.5-5.3,10.5-11.4c0-5.3-4.4-9.6-9.6-10.5
		c-4.4-0.9-7.9-0.9-13.1-0.9c-54.3,0-98,43.8-98,98s43.8,98,98,98c33.3,0,63.9-16.6,82.3-43.8c3.5-5.3,1.8-12.3-3.5-14.9
		c-5.3-3.5-12.3-1.8-14.9,3.5c-14,21-37.6,34.1-63.9,34.1c-42,0-76.1-34.1-76.1-76.1S264.6,287.1,306.6,287.1z"/>
</g>
</svg>
