<?xml version="1.0" encoding="utf-8"?>
<!-- Generator: Adobe Illustrator 24.0.1, SVG Export Plug-In . SVG Version: 6.00 Build 0)  -->
<svg version="1.1" id="图层_1" xmlns="http://www.w3.org/2000/svg" xmlns:xlink="http://www.w3.org/1999/xlink" x="0px" y="0px"
	 viewBox="0 0 700 700" style="enable-background:new 0 0 700 700;" xml:space="preserve">
<style type="text/css">
	.st0{fill:#FF8E00;}
</style>
<g>
	<path class="st0" d="M371.8,301.3H182c-3.9,0-6.7-2.8-6.7-6.7c0-3.9,2.8-6.7,6.7-6.7h189.8c3.9,0,6.7,2.8,6.7,6.7
		C378.6,297.9,375.8,301.3,371.8,301.3z"/>
	<path class="st0" d="M371.8,248.1H182c-3.9,0-6.7-2.8-6.7-6.7c0-3.9,2.8-6.7,6.7-6.7h189.8c3.9,0,6.7,2.8,6.7,6.7
		S375.8,248.1,371.8,248.1z"/>
	<path class="st0" d="M324.2,158.5c-10.6,0-20.2-6.2-24.1-16.2c-3.9-9.5-12.9-15.1-23-15.1c-10.1,0-19,6.2-23,15.1
		c-4.5,10.1-13.4,16.2-24.1,16.2c-14.6,0-25.8-11.8-25.8-25.8V83.5c0-8.4,7.3-15.7,15.7-15.7h114.2c8.4,0,15.7,7.3,15.7,15.7v49.3
		C350,147.3,338.2,158.5,324.2,158.5L324.2,158.5z M277.2,113.7c15.7,0,29.1,9,35.3,23.5c2.2,5,6.7,8.4,11.8,8.4
		c7.3,0,12.9-5.6,12.9-12.3V83.5c0-1.1-1.1-2.2-2.2-2.2l-114.8,0c-1.1,0-2.2,1.1-2.2,2.2v49.3c0,6.7,5.6,12.3,12.3,12.3
		c5.6,0,9.5-3.4,11.8-8.4C248.1,122.6,261.5,113.7,277.2,113.7L277.2,113.7z"/>
	<path class="st0" d="M603.1,558.3c-7.3,0-14-2.8-19-7.8c-5-5-7.8-11.8-7.8-19l-0.6-334.3c0-3.9,2.8-6.7,6.7-6.7h40.3
		c1.7,0,3.4,0.6,4.5,1.7c1.1,1.1,2.2,2.8,2.2,4.5l0.6,334.3C630,546.6,618.2,558.3,603.1,558.3L603.1,558.3z M589.7,204.4l0.6,327.6
		c0,3.4,1.7,6.7,3.9,9.5c2.8,2.2,5.6,3.9,9.5,3.9c7.3,0,13.4-6.2,13.4-13.4l-0.6-327.6L589.7,204.4z"/>
	<path class="st0" d="M629.4,204.4h-53.2l0-69.4c0-14.6,11.8-26.9,26.9-26.9c14.6,0,26.9,11.8,26.9,26.9l0,69.4H629.4z M589.7,191
		h26.9v-56c0-7.3-6.2-13.4-13.4-13.4s-13.4,6.2-13.4,13.4L589.7,191z"/>
	<path class="st0" d="M603.1,602c-3.9,0-6.7-2.8-6.7-6.7v-43.1c0-3.9,2.8-6.7,6.7-6.7c3.9,0,6.7,2.8,6.7,6.7v43.1
		C609.8,598.7,606.5,602,603.1,602z"/>
	<path class="st0" d="M424.5,606.5H104.2v-48.7c0-3.9,2.8-6.7,6.7-6.7c3.9,0,6.7,2.8,6.7,6.7v35.3h306.9c48.7,0,87.9-39.8,87.9-88.5
		v-383h-35.3c-3.9,0-6.7-2.8-6.7-6.7c0-3.9,2.8-6.7,6.7-6.7h48.7v396.5C525.8,560.6,480.5,606.5,424.5,606.5L424.5,606.5z"/>
	<path class="st0" d="M392,564.5H70V67.8h110.3c3.9,0,6.7,2.8,6.7,6.7c0,3.9-2.8,6.7-6.7,6.7H83.4V551H392c10.6,0,19.6-9,19.6-19.6
		v-39.8h39.8c10.6,0,19.6-9,19.6-19.6l0-390.9h-96.9c-3.9,0-6.7-2.8-6.7-6.7c0-3.9,2.8-6.7,6.7-6.7h110.3v404.3
		c0,17.9-14.6,33-33,33H425v26.3C425,549.4,409.9,564.5,392,564.5L392,564.5z"/>
	<path class="st0" d="M378.6,390.9H175.3v-42.6c0-3.9,2.8-6.7,6.7-6.7c3.9,0,6.7,2.8,6.7,6.7v29.1h176.4l0-29.1
		c0-3.9,2.8-6.7,6.7-6.7c3.9,0,6.7,2.8,6.7,6.7L378.6,390.9z"/>
</g>
</svg>
