<svg xmlns="http://www.w3.org/2000/svg" version="1.1" xmlns:xlink="http://www.w3.org/1999/xlink" xmlns:svgjs="http://svgjs.dev/svgjs" width="2000" height="1247" viewBox="0 0 2000 1247"><g transform="matrix(1,0,0,1,-1.2121212121212466,0.504858299595071)"><svg viewBox="0 0 396 247" data-background-color="#ffffff" preserveAspectRatio="xMidYMid meet" height="1247" width="2000" xmlns="http://www.w3.org/2000/svg" xmlns:xlink="http://www.w3.org/1999/xlink"><g id="tight-bounds" transform="matrix(1,0,0,1,0.2400000000000091,-0.09999999999999432)"><svg viewBox="0 0 395.52 247.2" height="247.2" width="395.52"><g><svg></svg></g><g><svg viewBox="0 0 395.52 247.2" height="247.2" width="395.52"><g transform="matrix(1,0,0,1,39.55199999999999,78.67904470063802)"><svg viewBox="0 0 316.416 89.84191059872396" height="89.84191059872396" width="316.416"><g><svg viewBox="0 0 316.416 89.84191059872396" height="89.84191059872396" width="316.416"><g><svg viewBox="0 0 316.416 89.84191059872396" height="89.84191059872396" width="316.416"><g><svg viewBox="0 0 316.416 89.84191059872396" height="89.84191059872396" width="316.416"><g id="textblocktransform"><svg viewBox="0 0 316.416 89.84191059872396" height="89.84191059872396" width="316.416" id="textblock"><g><svg viewBox="0 0 316.416 89.84191059872396" height="89.84191059872396" width="316.416"><g transform="matrix(1,0,0,1,0,0)"><svg width="316.416" viewBox="-0.1700000762939453 -39.54999923706055 150.83999633789062 43.54999923706055" height="89.84191059872396" data-palette-color="#4d7e3e"><path d="M20.87-20.26L20.87-16.43 8.3-16.43 8.3-3.83 22.95-3.83 22.95 0 3.83 0 3.83-35.55 22.71-35.55 22.71-31.69 8.3-31.69 8.3-20.26 20.87-20.26ZM28.66-35.55L34.42-35.55 43.7-6.54 52.98-35.55 58.74-35.55 58.74 0 54.27 0 54.27-13.84 54.69-27.71 45.38 0 41.97 0 32.71-27.61 33.13-13.84 33.13 0 28.66 0 28.66-35.55ZM89.64-35.55L89.64 0 85.15 0 70.92-27.39 70.92 0 66.43 0 66.43-35.55 70.92-35.55 85.2-8.03 85.2-35.55 89.64-35.55ZM109.03-13.92L101.85-13.92 101.85 0 97.38 0 97.38-35.55 108.71-35.55Q113.66-35.55 116.5-32.58 119.33-29.61 119.33-24.68L119.33-24.68Q119.33-19.56 116.63-16.78 113.93-14.01 109.03-13.92L109.03-13.92ZM101.85-31.69L101.85-17.75 108.71-17.75Q111.69-17.75 113.27-19.53 114.86-21.31 114.86-24.63L114.86-24.63Q114.86-27.83 113.22-29.76 111.59-31.69 108.73-31.69L108.73-31.69 101.85-31.69ZM133.05 0L125.09 0 125.09-35.55 133.56-35.55Q139.78-35.55 143.23-31.65 146.67-27.76 146.67-20.7L146.67-20.7 146.67-14.75Q146.67-7.69 143.18-3.85 139.69 0 133.05 0L133.05 0ZM133.56-31.69L129.56-31.69 129.56-3.83 133.14-3.83Q137.86-3.83 140.03-6.53 142.2-9.23 142.25-14.53L142.25-14.53 142.25-20.83Q142.25-26.44 140.09-29.06 137.93-31.69 133.56-31.69L133.56-31.69Z" opacity="1" transform="matrix(1,0,0,1,0,0)" fill="#4d7e3e" class="undefined-text-0" data-fill-palette-color="primary" id="text-0"></path></svg></g></svg></g></svg></g></svg></g><g></g></svg></g></svg></g></svg></g><g mask="url(#65c39669-6622-4af0-8aaf-d32ecbb02344)"><g transform="matrix(2.7244444444444444, 0, 0, 2.7244444444444444, 90.96177569919162, 1)"><svg xmlns="http://www.w3.org/2000/svg" xmlns:xlink="http://www.w3.org/1999/xlink" version="1.1" x="0" y="0" viewBox="10.100000381469727 5.199999809265137 78.4000015258789 90" enable-background="new 0 0 100 100" xml:space="preserve" height="90" width="78.4000015258789" class="icon-none" data-fill-palette-color="accent" id="none"><polygon fill-rule="evenodd" clip-rule="evenodd" fill="#4d7e3e" points="88.5,28.2 68.4,59.9 68.5,22.3 " data-fill-palette-color="accent"></polygon><polygon fill-rule="evenodd" clip-rule="evenodd" fill="#4d7e3e" points="49.8,5.2 67.2,38.5 34.7,19.6 " data-fill-palette-color="accent"></polygon><polygon fill-rule="evenodd" clip-rule="evenodd" fill="#4d7e3e" points="67.8,38.3 67.8,22.3 60.8,24.5 " data-fill-palette-color="accent"></polygon><polygon fill-rule="evenodd" clip-rule="evenodd" fill="#4d7e3e" points="88.2,73.2 50.6,71.7 83.2,52.9 " data-fill-palette-color="accent"></polygon><polygon fill-rule="evenodd" clip-rule="evenodd" fill="#4d7e3e" points="69.1,60.3 82.8,52.3 77.4,47.4 " data-fill-palette-color="accent"></polygon><polygon fill-rule="evenodd" clip-rule="evenodd" fill="#4d7e3e" points="48.7,95.2 31.5,61.9 63.9,80.9 " data-fill-palette-color="accent"></polygon><polygon fill-rule="evenodd" clip-rule="evenodd" fill="#4d7e3e" points="50.5,72.2 64.2,80.2 65.8,73.1 " data-fill-palette-color="accent"></polygon><polygon fill-rule="evenodd" clip-rule="evenodd" fill="#4d7e3e" points="10.1,72 30.5,40.4 30.1,78 " data-fill-palette-color="accent"></polygon><polygon fill-rule="evenodd" clip-rule="evenodd" fill="#4d7e3e" points="30.9,62.1 30.8,78 37.8,75.8 " data-fill-palette-color="accent"></polygon><polygon fill-rule="evenodd" clip-rule="evenodd" fill="#4d7e3e" points="11,27 48.5,28.9 15.8,47.3 " data-fill-palette-color="accent"></polygon><polygon fill-rule="evenodd" clip-rule="evenodd" fill="#4d7e3e" points="30,40.1 16.1,47.9 21.5,52.9 " data-fill-palette-color="accent"></polygon><polygon fill-rule="evenodd" clip-rule="evenodd" fill="#4d7e3e" points="48.2,28.3 34.5,20.2 32.9,27.4 " data-fill-palette-color="accent"></polygon></svg></g></g><mask id="65c39669-6622-4af0-8aaf-d32ecbb02344"><rect width="640" height="400" fill="white"></rect><g transform="matrix(1,0,0,1,39.55199999999999,78.67904470063802)"><svg viewBox="0 0 316.416 89.84191059872396" height="89.84191059872396" width="316.416"><g><svg viewBox="0 0 316.416 89.84191059872396" height="89.84191059872396" width="316.416"><g><svg viewBox="0 0 316.416 89.84191059872396" height="89.84191059872396" width="316.416"><g><svg viewBox="0 0 316.416 89.84191059872396" height="89.84191059872396" width="316.416"><g id="SvgjsG1128"><svg viewBox="0 0 316.416 89.84191059872396" height="89.84191059872396" width="316.416" id="SvgjsSvg1127"><g><svg viewBox="0 0 316.416 89.84191059872396" height="89.84191059872396" width="316.416"><g transform="matrix(1,0,0,1,0,0)"><svg width="316.416" viewBox="-0.1700000762939453 -39.54999923706055 150.83999633789062 43.54999923706055" height="89.84191059872396" data-palette-color="#4d7e3e"><path d="M20.87-20.26L20.87-16.43 8.3-16.43 8.3-3.83 22.95-3.83 22.95 0 3.83 0 3.83-35.55 22.71-35.55 22.71-31.69 8.3-31.69 8.3-20.26 20.87-20.26ZM28.66-35.55L34.42-35.55 43.7-6.54 52.98-35.55 58.74-35.55 58.74 0 54.27 0 54.27-13.84 54.69-27.71 45.38 0 41.97 0 32.71-27.61 33.13-13.84 33.13 0 28.66 0 28.66-35.55ZM89.64-35.55L89.64 0 85.15 0 70.92-27.39 70.92 0 66.43 0 66.43-35.55 70.92-35.55 85.2-8.03 85.2-35.55 89.64-35.55ZM109.03-13.92L101.85-13.92 101.85 0 97.38 0 97.38-35.55 108.71-35.55Q113.66-35.55 116.5-32.58 119.33-29.61 119.33-24.68L119.33-24.68Q119.33-19.56 116.63-16.78 113.93-14.01 109.03-13.92L109.03-13.92ZM101.85-31.69L101.85-17.75 108.71-17.75Q111.69-17.75 113.27-19.53 114.86-21.31 114.86-24.63L114.86-24.63Q114.86-27.83 113.22-29.76 111.59-31.69 108.73-31.69L108.73-31.69 101.85-31.69ZM133.05 0L125.09 0 125.09-35.55 133.56-35.55Q139.78-35.55 143.23-31.65 146.67-27.76 146.67-20.7L146.67-20.7 146.67-14.75Q146.67-7.69 143.18-3.85 139.69 0 133.05 0L133.05 0ZM133.56-31.69L129.56-31.69 129.56-3.83 133.14-3.83Q137.86-3.83 140.03-6.53 142.2-9.23 142.25-14.53L142.25-14.53 142.25-20.83Q142.25-26.44 140.09-29.06 137.93-31.69 133.56-31.69L133.56-31.69Z" opacity="1" transform="matrix(1,0,0,1,0,0)" fill="#4d7e3e" class="undefined-text-0" data-fill-palette-color="primary" id="SvgjsPath1126" stroke-width="7" stroke="black" stroke-linejoin="round"></path></svg></g></svg></g></svg></g></svg></g><g></g></svg></g></svg></g></svg></g></mask></svg></g><defs></defs></svg><rect width="395.52" height="247.2" fill="none" stroke="none" visibility="hidden"></rect></g></svg></g></svg>